<?xml version="1.0" encoding="utf-8"?>
<!-- Generator: Adobe Illustrator 26.0.2, SVG Export Plug-In . SVG Version: 6.00 Build 0)  -->
<!DOCTYPE svg PUBLIC "-//W3C//DTD SVG 1.1//EN" "http://www.w3.org/Graphics/SVG/1.1/DTD/svg11.dtd" [
	<!ENTITY ns_extend "http://ns.adobe.com/Extensibility/1.0/">
	<!ENTITY ns_ai "http://ns.adobe.com/AdobeIllustrator/10.0/">
	<!ENTITY ns_graphs "http://ns.adobe.com/Graphs/1.0/">
	<!ENTITY ns_vars "http://ns.adobe.com/Variables/1.0/">
	<!ENTITY ns_imrep "http://ns.adobe.com/ImageReplacement/1.0/">
	<!ENTITY ns_sfw "http://ns.adobe.com/SaveForWeb/1.0/">
	<!ENTITY ns_custom "http://ns.adobe.com/GenericCustomNamespace/1.0/">
	<!ENTITY ns_adobe_xpath "http://ns.adobe.com/XPath/1.0/">
]>
<svg version="1.1" id="Layer_1" xmlns:x="&ns_extend;" xmlns:i="&ns_ai;" xmlns:graph="&ns_graphs;"
	 xmlns="http://www.w3.org/2000/svg" xmlns:xlink="http://www.w3.org/1999/xlink" x="0px" y="0px" viewBox="0 0 118 20"
	 style="enable-background:new 0 0 118 20;" xml:space="preserve">
<style type="text/css">
	.st0{fill:url(#SVGID_1_);}
	.st1{fill:url(#SVGID_00000124882579935135730340000017821944443282953864_);}
	.st2{fill:url(#SVGID_00000046308611383173733120000016339859466286310553_);}
	.st3{fill:url(#SVGID_00000150805167237986494580000007030655766163119294_);}
	.st4{fill:url(#SVGID_00000129181477903056577830000005561563834886662035_);}
	.st5{fill:url(#SVGID_00000142893715534614848200000009058797468430873225_);}
</style>
<metadata>
	<sfw  xmlns="&ns_sfw;">
		<slices></slices>
		<sliceSourceBounds  bottomLeftOrigin="true" height="18" width="89.2" x="14.4" y="1"></sliceSourceBounds>
	</sfw>
</metadata>
<g>
	<linearGradient id="SVGID_1_" gradientUnits="userSpaceOnUse" x1="102.8347" y1="-7.8382" x2="7.856" y2="14.1193">
		<stop  offset="2.663895e-08" style="stop-color:#FFCC00"/>
		<stop  offset="1" style="stop-color:#FFB600"/>
	</linearGradient>
	<path class="st0" d="M21.9,1L29.4,19H19.3l1.2-3h4.4l-3-7.2l-3,7.2l-1.2,3h-3.2L21.9,1z"/>
	
		<linearGradient id="SVGID_00000157268262938359257220000002346736677788755587_" gradientUnits="userSpaceOnUse" x1="103.2744" y1="-5.9361" x2="8.2957" y2="16.0214">
		<stop  offset="2.663895e-08" style="stop-color:#FFCC00"/>
		<stop  offset="1" style="stop-color:#FFB600"/>
	</linearGradient>
	<path style="fill:url(#SVGID_00000157268262938359257220000002346736677788755587_);" d="M36.4,1c1.2,0,2.4,0.2,3.5,0.7
		c1.1,0.5,2,1.1,2.8,1.9c0.8,0.8,1.5,1.8,1.9,2.9c0.5,1.1,0.7,2.3,0.7,3.5c0,1.2-0.2,2.4-0.7,3.5c-0.5,1.1-1.1,2-1.9,2.8
		c-0.8,0.8-1.8,1.5-2.8,1.9c-1.1,0.5-2.3,0.7-3.5,0.7h-3.8h-1.5V5.5h3V16h2.3c0.8,0,1.6-0.2,2.3-0.5c0.7-0.3,1.4-0.7,1.9-1.3
		c0.5-0.5,1-1.2,1.3-1.9c0.3-0.7,0.5-1.5,0.5-2.3c0-0.8-0.2-1.6-0.5-2.3c-0.3-0.7-0.7-1.4-1.3-1.9c-0.5-0.5-1.2-1-1.9-1.3
		C38,4.2,37.3,4,36.4,4h-3.8h-1.5V1h1.5H36.4z"/>
	
		<linearGradient id="SVGID_00000155118914587433759470000006943672926944856971_" gradientUnits="userSpaceOnUse" x1="104.3563" y1="-1.2563" x2="9.3776" y2="20.7012">
		<stop  offset="2.663895e-08" style="stop-color:#FFCC00"/>
		<stop  offset="1" style="stop-color:#FFB600"/>
	</linearGradient>
	<path style="fill:url(#SVGID_00000155118914587433759470000006943672926944856971_);" d="M63.5,8.5v3c0,1-0.2,2-0.6,2.9
		c-0.4,0.9-0.9,1.7-1.6,2.4c-0.7,0.7-1.5,1.2-2.4,1.6C58,18.8,57.1,19,56,19h-0.8c-1,0-2-0.2-2.9-0.6c-0.9-0.4-1.7-0.9-2.4-1.6
		c-0.7-0.7-1.2-1.5-1.6-2.4c-0.4-0.9-0.6-1.9-0.6-2.9v-3c0-1,0.2-2,0.6-2.9c0.4-0.9,0.9-1.7,1.6-2.4c0.7-0.7,1.5-1.2,2.4-1.6
		C53.2,1.2,54.2,1,55.2,1H56c1,0,2,0.2,2.9,0.6c0.9,0.4,1.7,0.9,2.4,1.6c0.7,0.7,1.2,1.5,1.6,2.4C63.3,6.5,63.5,7.5,63.5,8.5z
		 M60.5,11.5v-3c0-0.6-0.1-1.2-0.3-1.7s-0.6-1-1-1.4c-0.4-0.4-0.9-0.7-1.4-1C57.2,4.1,56.6,4,56,4h-0.8c-0.6,0-1.2,0.1-1.7,0.3
		c-0.5,0.2-1,0.6-1.4,1c-0.4,0.4-0.7,0.9-1,1.4c-0.2,0.5-0.3,1.1-0.3,1.7v3c0,0.6,0.1,1.2,0.3,1.7c0.2,0.5,0.6,1,1,1.4
		s0.9,0.7,1.4,1c0.5,0.2,1.1,0.3,1.7,0.3H56c0.6,0,1.2-0.1,1.7-0.3c0.5-0.2,1-0.6,1.4-1s0.7-0.9,1-1.4S60.5,12.1,60.5,11.5z"/>
	
		<linearGradient id="SVGID_00000038395501068704203680000009409809871131092158_" gradientUnits="userSpaceOnUse" x1="105.2882" y1="2.7745" x2="10.3095" y2="24.732">
		<stop  offset="2.663895e-08" style="stop-color:#FFCC00"/>
		<stop  offset="1" style="stop-color:#FFB600"/>
	</linearGradient>
	<path style="fill:url(#SVGID_00000038395501068704203680000009409809871131092158_);" d="M69.5,1l12,17.9h-3h-0.6L69.5,6.4V19h-3V1
		H69.5z M81.5,1v15.2l-3-4.5V1H81.5z"/>
	
		<linearGradient id="SVGID_00000161617140038692951240000017485575028946418081_" gradientUnits="userSpaceOnUse" x1="105.9096" y1="5.4623" x2="10.9308" y2="27.4198">
		<stop  offset="2.663895e-08" style="stop-color:#FFCC00"/>
		<stop  offset="1" style="stop-color:#FFB600"/>
	</linearGradient>
	<path style="fill:url(#SVGID_00000161617140038692951240000017485575028946418081_);" d="M87.7,1V19h-3V1H87.7z"/>
	
		<linearGradient id="SVGID_00000017486826948005984450000013419757308375475133_" gradientUnits="userSpaceOnUse" x1="106.4586" y1="7.8371" x2="11.4799" y2="29.7946">
		<stop  offset="2.663895e-08" style="stop-color:#FFCC00"/>
		<stop  offset="1" style="stop-color:#FFB600"/>
	</linearGradient>
	<path style="fill:url(#SVGID_00000017486826948005984450000013419757308375475133_);" d="M103.6,1v3h-7c-0.4,0-0.8,0.1-1.2,0.2
		c-0.4,0.2-0.7,0.4-1,0.6c-0.3,0.3-0.5,0.6-0.6,0.9c-0.2,0.4-0.2,0.7-0.2,1.2v3h-3V7c0-0.8,0.2-1.6,0.5-2.3c0.3-0.7,0.7-1.4,1.3-1.9
		c0.5-0.5,1.2-1,1.9-1.3C95,1.2,95.8,1,96.6,1H103.6z M103.6,10v3c0,0.8-0.2,1.6-0.5,2.3c-0.3,0.7-0.7,1.4-1.3,1.9
		c-0.5,0.5-1.2,1-1.9,1.3c-0.7,0.3-1.5,0.5-2.3,0.5h-7v-3h7c0.4,0,0.8-0.1,1.2-0.2c0.4-0.2,0.7-0.4,0.9-0.6c0.3-0.3,0.5-0.6,0.6-0.9
		c0.2-0.4,0.2-0.7,0.2-1.2v-3H103.6z"/>
</g>
</svg>
