<?xml version="1.0" encoding="utf-8"?>
<!-- Generator: Adobe Illustrator 26.0.2, SVG Export Plug-In . SVG Version: 6.00 Build 0)  -->
<!DOCTYPE svg PUBLIC "-//W3C//DTD SVG 1.1//EN" "http://www.w3.org/Graphics/SVG/1.1/DTD/svg11.dtd" [
	<!ENTITY ns_extend "http://ns.adobe.com/Extensibility/1.0/">
	<!ENTITY ns_ai "http://ns.adobe.com/AdobeIllustrator/10.0/">
	<!ENTITY ns_graphs "http://ns.adobe.com/Graphs/1.0/">
	<!ENTITY ns_vars "http://ns.adobe.com/Variables/1.0/">
	<!ENTITY ns_imrep "http://ns.adobe.com/ImageReplacement/1.0/">
	<!ENTITY ns_sfw "http://ns.adobe.com/SaveForWeb/1.0/">
	<!ENTITY ns_custom "http://ns.adobe.com/GenericCustomNamespace/1.0/">
	<!ENTITY ns_adobe_xpath "http://ns.adobe.com/XPath/1.0/">
]>
<svg version="1.1" id="Layer_1" xmlns:x="&ns_extend;" xmlns:i="&ns_ai;" xmlns:graph="&ns_graphs;"
	 xmlns="http://www.w3.org/2000/svg" xmlns:xlink="http://www.w3.org/1999/xlink" x="0px" y="0px" viewBox="0 0 118 20"
	 style="enable-background:new 0 0 118 20;" xml:space="preserve">
<style type="text/css">
	.st0{fill:url(#SVGID_1_);}
	.st1{fill:url(#SVGID_00000134960037886708579200000013046567303258468279_);}
	.st2{fill:url(#SVGID_00000087382046779633620440000007499833475362524326_);}
	.st3{fill:url(#SVGID_00000134228996242810391020000002803081316030849693_);}
	.st4{fill:url(#SVGID_00000059990517561556461220000005269813220459895946_);}
	.st5{fill:url(#SVGID_00000075869897806582561770000002817310491416682428_);}
</style>
<metadata>
	<sfw  xmlns="&ns_sfw;">
		<slices></slices>
		<sliceSourceBounds  bottomLeftOrigin="true" height="18" width="89.2" x="14.4" y="1"></sliceSourceBounds>
	</sfw>
</metadata>
<g>
	<linearGradient id="SVGID_1_" gradientUnits="userSpaceOnUse" x1="14.4043" y1="10.013" x2="29.3556" y2="10.013">
		<stop  offset="2.663895e-08" style="stop-color:#002144"/>
		<stop  offset="1" style="stop-color:#021F3A"/>
	</linearGradient>
	<path class="st0" d="M21.9,1L29.4,19H19.3l1.2-3h4.4l-3-7.2l-3,7.2l-1.2,3h-3.2L21.9,1z"/>
	
		<linearGradient id="SVGID_00000019643519410737656900000001530057338922427320_" gradientUnits="userSpaceOnUse" x1="31.1917" y1="10" x2="45.42" y2="10">
		<stop  offset="2.663895e-08" style="stop-color:#002144"/>
		<stop  offset="1" style="stop-color:#021F3A"/>
	</linearGradient>
	<path style="fill:url(#SVGID_00000019643519410737656900000001530057338922427320_);" d="M36.4,1c1.2,0,2.4,0.2,3.5,0.7
		c1.1,0.5,2,1.1,2.8,1.9c0.8,0.8,1.5,1.8,1.9,2.9c0.5,1.1,0.7,2.3,0.7,3.5c0,1.2-0.2,2.4-0.7,3.5c-0.5,1.1-1.1,2-1.9,2.8
		c-0.8,0.8-1.8,1.5-2.8,1.9c-1.1,0.5-2.3,0.7-3.5,0.7h-3.8h-1.5V5.5h3V16h2.3c0.8,0,1.6-0.2,2.3-0.5c0.7-0.3,1.4-0.7,1.9-1.3
		c0.5-0.5,1-1.2,1.3-1.9c0.3-0.7,0.5-1.5,0.5-2.3c0-0.8-0.2-1.6-0.5-2.3c-0.3-0.7-0.7-1.4-1.3-1.9c-0.5-0.5-1.2-1-1.9-1.3
		C38,4.2,37.3,4,36.4,4h-3.8h-1.5V1h1.5H36.4z"/>
	
		<linearGradient id="SVGID_00000119827431500239462380000016636060517547597976_" gradientUnits="userSpaceOnUse" x1="47.7219" y1="10.013" x2="63.4745" y2="10.013">
		<stop  offset="2.663895e-08" style="stop-color:#002144"/>
		<stop  offset="1" style="stop-color:#021F3A"/>
	</linearGradient>
	<path style="fill:url(#SVGID_00000119827431500239462380000016636060517547597976_);" d="M63.5,8.5v3c0,1-0.2,2-0.6,2.9
		c-0.4,0.9-0.9,1.7-1.6,2.4c-0.7,0.7-1.5,1.2-2.4,1.6C58,18.8,57.1,19,56,19h-0.8c-1,0-2-0.2-2.9-0.6c-0.9-0.4-1.7-0.9-2.4-1.6
		c-0.7-0.7-1.2-1.5-1.6-2.4c-0.4-0.9-0.6-1.9-0.6-2.9v-3c0-1,0.2-2,0.6-2.9c0.4-0.9,0.9-1.7,1.6-2.4c0.7-0.7,1.5-1.2,2.4-1.6
		C53.2,1.2,54.2,1,55.2,1H56c1,0,2,0.2,2.9,0.6c0.9,0.4,1.7,0.9,2.4,1.6c0.7,0.7,1.2,1.5,1.6,2.4C63.3,6.5,63.5,7.5,63.5,8.5z
		 M60.5,11.5v-3c0-0.6-0.1-1.2-0.3-1.7s-0.6-1-1-1.4c-0.4-0.4-0.9-0.7-1.4-1C57.2,4.1,56.6,4,56,4h-0.8c-0.6,0-1.2,0.1-1.7,0.3
		c-0.5,0.2-1,0.6-1.4,1c-0.4,0.4-0.7,0.9-1,1.4c-0.2,0.5-0.3,1.1-0.3,1.7v3c0,0.6,0.1,1.2,0.3,1.7c0.2,0.5,0.6,1,1,1.4
		s0.9,0.7,1.4,1c0.5,0.2,1.1,0.3,1.7,0.3H56c0.6,0,1.2-0.1,1.7-0.3c0.5-0.2,1-0.6,1.4-1s0.7-0.9,1-1.4S60.5,12.1,60.5,11.5z"/>
	
		<linearGradient id="SVGID_00000062881453366291481290000001019451826634922887_" gradientUnits="userSpaceOnUse" x1="66.5018" y1="10.013" x2="81.4531" y2="10.013">
		<stop  offset="2.663895e-08" style="stop-color:#002144"/>
		<stop  offset="1" style="stop-color:#021F3A"/>
	</linearGradient>
	<path style="fill:url(#SVGID_00000062881453366291481290000001019451826634922887_);" d="M69.5,1l12,17.9h-3h-0.6L69.5,6.4V19h-3V1
		H69.5z M81.5,1v15.2l-3-4.5V1H81.5z"/>
	
		<linearGradient id="SVGID_00000152953993494211192180000018066446510416554149_" gradientUnits="userSpaceOnUse" x1="84.7376" y1="10.013" x2="87.7127" y2="10.013">
		<stop  offset="2.663895e-08" style="stop-color:#002144"/>
		<stop  offset="1" style="stop-color:#021F3A"/>
	</linearGradient>
	<path style="fill:url(#SVGID_00000152953993494211192180000018066446510416554149_);" d="M87.7,1V19h-3V1H87.7z"/>
	
		<linearGradient id="SVGID_00000013160959808149122200000005921466228707243692_" gradientUnits="userSpaceOnUse" x1="90.6096" y1="10" x2="103.5957" y2="10">
		<stop  offset="2.663895e-08" style="stop-color:#002144"/>
		<stop  offset="1" style="stop-color:#021F3A"/>
	</linearGradient>
	<path style="fill:url(#SVGID_00000013160959808149122200000005921466228707243692_);" d="M103.6,1v3h-7c-0.4,0-0.8,0.1-1.2,0.2
		c-0.4,0.2-0.7,0.4-1,0.6c-0.3,0.3-0.5,0.6-0.6,0.9c-0.2,0.4-0.2,0.7-0.2,1.2v3h-3V7c0-0.8,0.2-1.6,0.5-2.3c0.3-0.7,0.7-1.4,1.3-1.9
		c0.5-0.5,1.2-1,1.9-1.3C95,1.2,95.8,1,96.6,1H103.6z M103.6,10v3c0,0.8-0.2,1.6-0.5,2.3c-0.3,0.7-0.7,1.4-1.3,1.9
		c-0.5,0.5-1.2,1-1.9,1.3c-0.7,0.3-1.5,0.5-2.3,0.5h-7v-3h7c0.4,0,0.8-0.1,1.2-0.2c0.4-0.2,0.7-0.4,0.9-0.6c0.3-0.3,0.5-0.6,0.6-0.9
		c0.2-0.4,0.2-0.7,0.2-1.2v-3H103.6z"/>
</g>
</svg>
